<?xml version="1.0" standalone="no"?>
<!DOCTYPE svg PUBLIC "-//W3C//DTD SVG 20010904//EN"
 "http://www.w3.org/TR/2001/REC-SVG-20010904/DTD/svg10.dtd">
<svg version="1.0" xmlns="http://www.w3.org/2000/svg"
 width="512.000000pt" height="512.000000pt" viewBox="0 0 512.000000 512.000000"
 preserveAspectRatio="xMidYMid meet">
<metadata>
Created by potrace 1.14, written by Peter Selinger 2001-2017
</metadata>
<g transform="translate(0.000000,512.000000) scale(0.100000,-0.100000)"
fill="#000000" stroke="none">
<path d="M840 5099 c-55 -25 -105 -71 -133 -124 l-22 -40 0 -1995 c0 -1953 0
-1996 19 -2034 49 -99 133 -145 265 -149 l86 -2 1 -75 c1 -102 24 -166 78
-219 55 -54 118 -77 214 -76 l72 1 0 -91 c0 -105 25 -173 84 -229 75 -70 -5
-66 1431 -66 930 0 1302 3 1326 12 54 17 114 69 145 123 l29 50 2 1984 c1
1388 -2 1993 -10 2015 -42 122 -140 181 -297 179 l-55 -1 -1 97 c-1 77 -6 106
-22 138 -32 61 -65 96 -118 122 -45 23 -66 26 -220 31 -8 0 -13 34 -16 98 -3
66 -10 107 -21 130 -23 43 -74 95 -117 118 -34 18 -82 19 -1355 21 -1308 3
-1320 2 -1365 -18z"/>
</g>
</svg>
